<svg id="mol1" xmlns="http://www.w3.org/2000/svg" version="1.1" width="1200px" height="900px" viewBox="507.14 366 164.43000000000006 169.17000000000007">
  <style> text {font-family: sans-serif;} #mol1 { pointer-events:none; } #mol1 .event  { pointer-events:all; } line { stroke-linecap:round; } polygon { stroke-linejoin:round; } </style>
  <text x="568.32" y="466.67" stroke="none" font-size="5" fill="rgb(0,0,0)">C:0</text>
  <text x="589.11" y="478.67" stroke="none" font-size="5" fill="rgb(0,0,0)">C:1</text>
  <text x="609.89" y="466.67" stroke="none" font-size="5" fill="rgb(0,0,0)">C:2</text>
  <text x="609.89" y="442.67" stroke="none" font-size="5" fill="rgb(0,0,0)">C:3</text>
  <text x="589.11" y="430.67" stroke="none" font-size="5" fill="rgb(0,0,0)">C:4</text>
  <text x="568.32" y="442.67" stroke="none" font-size="5" fill="rgb(0,0,0)">C:5</text>
  <text x="547.54" y="478.67" stroke="none" font-size="5" fill="rgb(0,0,0)">H:6</text>
  <text x="542.53" y="473" stroke="none" font-size="9" fill="rgb(0,0,0)">1</text>
  <text x="589.11" y="502.67" stroke="none" font-size="5" fill="rgb(0,0,0)">H:7</text>
  <text x="584.1" y="497" stroke="none" font-size="9" fill="rgb(0,0,0)">1</text>
  <text x="630.68" y="478.67" stroke="none" font-size="5" fill="rgb(0,0,0)">H:8</text>
  <text x="625.67" y="473" stroke="none" font-size="9" fill="rgb(0,0,0)">1</text>
  <text x="630.68" y="430.67" stroke="none" font-size="5" fill="rgb(0,0,0)">H:9</text>
  <text x="625.67" y="425" stroke="none" font-size="9" fill="rgb(0,0,0)">1</text>
  <text x="585.22" y="406.67" stroke="none" font-size="5" fill="rgb(0,0,0)">H:10</text>
  <text x="580.21" y="401" stroke="none" font-size="9" fill="rgb(0,0,0)">1</text>
  <text x="543.65" y="430.67" stroke="none" font-size="5" fill="rgb(0,0,0)">H:11</text>
  <text x="538.64" y="425" stroke="none" font-size="9" fill="rgb(0,0,0)">1</text>
  <line x1="620.78" y1="455" x2="620.78" y2="445" stroke="rgb(0,0,0)" stroke-width="1.2" />
  <line x1="617.18" y1="452.44" x2="617.18" y2="445" stroke="rgb(0,0,0)" stroke-width="1.2" />
  <line x1="579.22" y1="455" x2="579.22" y2="445" stroke="rgb(0,0,0)" stroke-width="1.2" />
  <line x1="600" y1="481" x2="600" y2="491" stroke="rgb(0,0,0)" stroke-width="1.2" />
  <line x1="600" y1="419" x2="600" y2="409" stroke="rgb(0,0,0)" stroke-width="1.2" />
  <line id="mol1:Bond:0" class="event" x1="579.22" y1="462" x2="600" y2="474" stroke-width="8" opacity="0" />
  <line id="mol1:Bond:2" class="event" x1="620.78" y1="462" x2="620.78" y2="438" stroke-width="8" opacity="0" />
  <line id="mol1:Bond:4" class="event" x1="600" y1="426" x2="579.22" y2="438" stroke-width="8" opacity="0" />
  <line id="mol1:Bond:1" class="event" x1="600" y1="474" x2="620.78" y2="462" stroke-width="8" opacity="0" />
  <line id="mol1:Bond:3" class="event" x1="620.78" y1="438" x2="600" y2="426" stroke-width="8" opacity="0" />
  <line id="mol1:Bond:5" class="event" x1="579.22" y1="462" x2="579.22" y2="438" stroke-width="8" opacity="0" />
  <line id="mol1:Bond:6" class="event" x1="579.22" y1="462" x2="558.43" y2="474" stroke-width="8" opacity="0" />
  <line id="mol1:Bond:7" class="event" x1="600" y1="474" x2="600" y2="498" stroke-width="8" opacity="0" />
  <line id="mol1:Bond:8" class="event" x1="620.78" y1="462" x2="641.57" y2="474" stroke-width="8" opacity="0" />
  <line id="mol1:Bond:9" class="event" x1="620.78" y1="438" x2="641.57" y2="426" stroke-width="8" opacity="0" />
  <line id="mol1:Bond:10" class="event" x1="600" y1="426" x2="600" y2="402" stroke-width="8" opacity="0" />
  <line id="mol1:Bond:11" class="event" x1="579.22" y1="438" x2="558.43" y2="426" stroke-width="8" opacity="0" />
  <circle id="mol1:Atom:0" class="event" cx="579.22" cy="462" r="8" opacity="0" />
  <circle id="mol1:Atom:1" class="event" cx="600" cy="474" r="8" opacity="0" />
  <circle id="mol1:Atom:2" class="event" cx="620.78" cy="462" r="8" opacity="0" />
  <circle id="mol1:Atom:3" class="event" cx="620.78" cy="438" r="8" opacity="0" />
  <circle id="mol1:Atom:4" class="event" cx="600" cy="426" r="8" opacity="0" />
  <circle id="mol1:Atom:5" class="event" cx="579.22" cy="438" r="8" opacity="0" />
  <circle id="mol1:Atom:6" class="event" cx="558.43" cy="474" r="8" opacity="0" />
  <circle id="mol1:Atom:7" class="event" cx="600" cy="498" r="8" opacity="0" />
  <circle id="mol1:Atom:8" class="event" cx="641.57" cy="474" r="8" opacity="0" />
  <circle id="mol1:Atom:9" class="event" cx="641.57" cy="426" r="8" opacity="0" />
  <circle id="mol1:Atom:10" class="event" cx="600" cy="402" r="8" opacity="0" />
  <circle id="mol1:Atom:11" class="event" cx="558.43" cy="426" r="8" opacity="0" />
</svg>